<svg height="14" width="9" xmlns="http://www.w3.org/2000/svg"><mask id="a" fill="#fff"><path d="M7.5 11.727c-.386 0-.623-.155-.935-.487L1.178 5.494a.917.917 0 0 1 0-1.238.785.785 0 0 1 1.16 0L7.5 9.763l5.162-5.507a.785.785 0 0 1 1.16 0c.32.342.32.896 0 1.238l-5.368 5.725c-.318.34-.568.508-.954.508z" fill-rule="evenodd"/></mask><g fill="none" fill-rule="evenodd"><path d="M12-1H-3v16h15z"/><g fill="#333" mask="url(#a)" transform="matrix(-1 0 0 1 12 -1)"><path d="M-76.875-57h169V73h-169z"/></g></g></svg>